<?xml version="1.0" encoding="utf-8"?>
<!-- Generator: Adobe Illustrator 25.0.0, SVG Export Plug-In . SVG Version: 6.00 Build 0)  -->
<svg version="1.1" id="Layer_1" xmlns="http://www.w3.org/2000/svg" xmlns:xlink="http://www.w3.org/1999/xlink" x="0px" y="0px"
	 viewBox="0 0 628 333" style="enable-background:new 0 0 628 333;" xml:space="preserve">
<style type="text/css">
	.st0{fill:#19A24A;stroke:#19A24A;stroke-miterlimit:10;}
	.st1{fill:none;stroke:#000000;stroke-miterlimit:10;}
	.st2{fill:none;}
	.st3{font-family:'MyriadPro-Regular';}
	.st4{font-size:16px;}
</style>
<rect x="31.03" y="43.85" class="st0" width="516.48" height="265.38"/>
<g>
	<g>
		<line class="st1" x1="37.07" y1="26.28" x2="536.54" y2="27.35"/>
		<g>
			<path d="M31.03,26.26c2.84,1.06,6.36,2.87,8.54,4.77l-1.71-4.76l1.73-4.75C37.4,23.43,33.88,25.22,31.03,26.26z"/>
		</g>
		<g>
			<path d="M542.57,27.36c-2.84,1.05-6.37,2.84-8.56,4.74l1.73-4.75l-1.71-4.76C536.21,24.5,539.73,26.3,542.57,27.36z"/>
		</g>
	</g>
</g>
<g>
	<g>
		<line class="st1" x1="562.89" y1="46.58" x2="562.36" y2="303.2"/>
		<g>
			<path d="M562.9,40.55c-1.06,2.84-2.86,6.36-4.77,8.54l4.76-1.71l4.75,1.73C565.74,46.92,563.95,43.39,562.9,40.55z"/>
		</g>
		<g>
			<path d="M562.35,309.23c-1.05-2.84-2.84-6.37-4.74-8.56l4.75,1.73l4.76-1.71C565.22,302.87,563.41,306.39,562.35,309.23z"/>
		</g>
	</g>
</g>
<rect x="-54.68" y="5.93" class="st2" width="286.81" height="0.55"/>
<rect x="249.49" y="9.74" class="st2" width="206.32" height="20.88"/>
<text transform="matrix(1 0 0 1 249.4903 21.1017)" class="st3 st4">5 feet</text>
<rect x="571.02" y="167.62" class="st2" width="56.98" height="17.84"/>
<text transform="matrix(1 0 0 1 571.0225 178.9767)" class="st3 st4">2 feet</text>
</svg>
